<svg width="198" height="203" viewBox="0 0 198 203" fill="none" xmlns="http://www.w3.org/2000/svg">
<ellipse cx="99" cy="101.5" rx="99" ry="101.5" fill="#2D8DAB"/>
<ellipse cx="99" cy="97" rx="99" ry="97" fill="#3FB7CD"/>
<ellipse cx="99" cy="97" rx="99" ry="97" fill="url(#paint0_linear_0_1104)"/>
<circle cx="98.9998" cy="99" r="76" fill="#BABFD4"/>
<ellipse cx="98.9998" cy="103" rx="76" ry="72" fill="url(#paint1_linear_0_1104)"/>
<path d="M132.512 104.822L131.333 103.644C128.518 100.826 123.915 100.213 120.477 102.188L113.136 106.384L114.666 72.7777C114.666 69.9603 112.374 67.667 109.555 67.667C108.946 67.667 108.36 67.7745 107.817 67.9714L107.999 66.168C107.999 63.3181 105.672 61.0005 102.814 61.0005C100.17 61.0005 97.9535 62.983 97.6735 65.5252L92.963 93.9854C92.9011 94.3728 92.2305 94.3337 92.1589 94.0896L86.5955 71.2723C85.9868 69.15 84.0205 67.6672 81.8135 67.6672C80.2868 67.6672 78.8674 68.3541 77.9169 69.552C76.9696 70.75 76.6246 72.2912 76.9762 73.7773L78.0569 78.372C77.4416 78.3215 76.8232 78.4045 76.234 78.6031C74.0399 79.3339 72.7019 81.5247 73.0568 83.839L76.3316 102.667C76.3316 110.096 77.6338 115.592 78.7276 118.893C79.3493 120.776 79.6651 122.757 79.6651 124.78C79.6651 126.541 79.4208 128.294 78.9358 129.986L76.3966 138.876C76.2533 139.379 76.3543 139.92 76.6668 140.338C76.9826 140.755 77.4741 141 77.9982 141H107.999C108.536 141 109.038 140.743 109.35 140.309C109.666 139.874 109.751 139.314 109.581 138.806C109.565 138.763 108.172 134.459 109.49 128.605C111.163 127.247 117.02 122.485 119.123 120.564C122.599 117.389 132.124 107.578 132.528 107.161C133.163 106.508 133.156 105.466 132.512 104.822Z" fill="#3B4262"/>
<defs>
<linearGradient id="paint0_linear_0_1104" x1="0" y1="0" x2="0" y2="194" gradientUnits="userSpaceOnUse">
<stop stop-color="white" stop-opacity="0.0966455"/>
<stop offset="1" stop-color="white" stop-opacity="0.01"/>
</linearGradient>
<linearGradient id="paint1_linear_0_1104" x1="173.74" y1="175" x2="173.74" y2="33.3868" gradientUnits="userSpaceOnUse">
<stop stop-color="#F3F3F3"/>
<stop offset="1" stop-color="#DADADA"/>
</linearGradient>
</defs>
</svg>
